<svg width="124" height="31" viewBox="0 0 124 31" fill="none" xmlns="http://www.w3.org/2000/svg">
<path d="M12.1966 6.89714C13.7722 6.89714 14.9371 7.24076 15.6914 7.928C16.4625 8.61524 16.848 9.512 16.848 10.6183C16.848 11.557 16.5882 12.2777 16.0686 12.7806C15.549 13.2667 14.803 13.5097 13.8309 13.5097C13.5291 13.5097 13.3364 13.4846 13.2526 13.4343C13.1688 13.3672 13.1269 13.2415 13.1269 13.0571C13.1269 12.8895 13.1101 12.6716 13.0766 12.4034C13.0598 12.1352 13.0011 11.8754 12.9006 11.624C12.8 11.3726 12.6408 11.163 12.4229 10.9954C12.205 10.811 11.9032 10.7189 11.5177 10.7189C10.9813 10.7189 10.5036 10.8865 10.0846 11.2217C9.66552 11.5402 9.456 11.9592 9.456 12.4789C9.456 12.9314 9.62362 13.3002 9.95886 13.5851C10.3109 13.8701 10.7467 14.1383 11.2663 14.3897C11.7859 14.6244 12.3474 14.8674 12.9509 15.1189C13.571 15.3703 14.141 15.7055 14.6606 16.1246C15.1802 16.5269 15.6076 17.0381 15.9429 17.6583C16.2949 18.2617 16.4709 19.0328 16.4709 19.9714C16.4709 20.709 16.3451 21.4046 16.0937 22.0583C15.859 22.6952 15.4987 23.2568 15.0126 23.7429C14.5432 24.2122 13.9398 24.581 13.2023 24.8491C12.4815 25.1173 11.635 25.2514 10.6629 25.2514C9.82476 25.2514 9.04533 25.1592 8.32457 24.9749C7.62057 24.7905 7.00038 24.5642 6.464 24.296C5.94438 24.011 5.53371 23.7093 5.232 23.3909C4.93029 23.0556 4.77943 22.7539 4.77943 22.4857C4.77943 21.3794 4.8381 20.5832 4.95543 20.0971C5.08952 19.611 5.32419 19.368 5.65943 19.368C5.8941 19.368 6.13714 19.4686 6.38857 19.6697C6.65676 19.8709 6.95848 20.0971 7.29371 20.3486C7.62895 20.6 8.01448 20.8263 8.45029 21.0274C8.90286 21.2286 9.42248 21.3291 10.0091 21.3291C10.2438 21.3291 10.4701 21.3124 10.688 21.2789C10.9227 21.2286 11.1238 21.1531 11.2914 21.0526C11.4758 20.952 11.6183 20.8179 11.7189 20.6503C11.8362 20.4827 11.8949 20.2815 11.8949 20.0469C11.8949 19.6278 11.7356 19.2926 11.4171 19.0411C11.0987 18.7897 10.6964 18.5634 10.2103 18.3623C9.72419 18.1444 9.19619 17.9265 8.62629 17.7086C8.07314 17.4739 7.55352 17.1638 7.06743 16.7783C6.58133 16.376 6.17905 15.8648 5.86057 15.2446C5.5421 14.6244 5.38286 13.8282 5.38286 12.856C5.38286 11.7665 5.584 10.8446 5.98629 10.0903C6.40533 9.336 6.93333 8.72419 7.57029 8.25486C8.224 7.76876 8.95314 7.42514 9.75771 7.224C10.579 7.0061 11.392 6.89714 12.1966 6.89714ZM26.981 21.8823C27.0313 21.3291 27.0815 20.7509 27.1318 20.1474C27.1989 19.544 27.2492 18.9657 27.2827 18.4126C27.333 17.8594 27.3749 17.365 27.4084 16.9291C27.4419 16.4933 27.4587 16.1749 27.4587 15.9737C27.4587 15.5379 27.3497 15.1524 27.1318 14.8171C26.9307 14.4651 26.5284 14.2891 25.925 14.2891C25.1204 14.2891 24.4667 14.6663 23.9638 15.4206C23.4777 16.1749 23.1928 17.1806 23.109 18.4377C23.0754 18.7897 23.0335 19.2842 22.9833 19.9211C22.933 20.5413 22.8827 21.1783 22.8324 21.832C22.7821 22.469 22.7318 23.0472 22.6815 23.5669C22.648 24.0697 22.6312 24.3798 22.6312 24.4971C22.6312 24.6983 22.5893 24.8324 22.5055 24.8994C22.4385 24.9665 22.296 25 22.0781 25H21.173C20.6533 25 20.2259 24.9497 19.8907 24.8491C19.5722 24.7318 19.3124 24.5726 19.1112 24.3714C18.9269 24.1703 18.7928 23.9272 18.709 23.6423C18.6419 23.3406 18.6084 22.997 18.6084 22.6114C18.6084 22.2427 18.6335 21.7314 18.6838 21.0777C18.7509 20.4072 18.8347 19.4937 18.9352 18.3371C19.0358 17.1638 19.1532 15.672 19.2872 13.8617C19.4213 12.0514 19.5638 9.80533 19.7147 7.12343C19.7314 6.75467 19.7733 6.53676 19.8404 6.46971C19.8907 6.41943 20.0248 6.39429 20.2427 6.39429H21.2232C21.7261 6.39429 22.1452 6.45295 22.4804 6.57029C22.8156 6.68762 23.0838 6.84686 23.285 7.048C23.4861 7.24914 23.6286 7.48381 23.7124 7.752C23.7962 8.00343 23.8381 8.27162 23.8381 8.55657C23.8381 8.85829 23.8046 9.41981 23.7375 10.2411C23.6872 11.0625 23.6202 12.0263 23.5364 13.1326C24.0392 12.2945 24.5924 11.7162 25.1958 11.3977C25.816 11.0792 26.5954 10.92 27.5341 10.92C28.2381 10.92 28.8499 10.9954 29.3695 11.1463C29.8892 11.2971 30.3166 11.557 30.6518 11.9257C31.0038 12.2777 31.2636 12.747 31.4312 13.3337C31.5989 13.9036 31.6827 14.616 31.6827 15.4709C31.6827 15.739 31.6575 16.2 31.6073 16.8537C31.557 17.5074 31.4899 18.2533 31.4061 19.0914C31.3391 19.9295 31.2636 20.8095 31.1798 21.7314C31.1128 22.6366 31.0541 23.4663 31.0038 24.2206C30.9871 24.405 30.9703 24.5474 30.9535 24.648C30.9368 24.7486 30.9033 24.824 30.853 24.8743C30.8194 24.9246 30.7608 24.9581 30.677 24.9749C30.5932 24.9916 30.4758 25 30.325 25H29.5204C28.984 25 28.5482 24.9497 28.213 24.8491C27.8777 24.7486 27.6179 24.6061 27.4335 24.4217C27.2492 24.2373 27.1151 24.011 27.0313 23.7429C26.9642 23.4579 26.9307 23.1394 26.9307 22.7874C26.9307 22.6198 26.9307 22.4606 26.9307 22.3097C26.9474 22.1589 26.9642 22.0164 26.981 21.8823ZM33.1761 21.9074C33.1761 20.3989 33.855 19.2171 35.2127 18.3623C36.5704 17.5074 38.5735 17.0465 41.2218 16.9794C41.2386 16.795 41.247 16.6442 41.247 16.5269C41.2637 16.3928 41.2721 16.2335 41.2721 16.0491C41.2721 15.5128 41.1716 15.0853 40.9704 14.7669C40.7693 14.4484 40.3502 14.2891 39.7133 14.2891C39.3613 14.2891 39.0763 14.3394 38.8584 14.44C38.6405 14.5406 38.4645 14.683 38.3304 14.8674C38.1963 15.035 38.0874 15.2446 38.0036 15.496C37.9197 15.7474 37.8443 16.024 37.7773 16.3257C37.7437 16.4766 37.6683 16.5771 37.551 16.6274C37.4336 16.661 37.2493 16.6777 36.9978 16.6777C35.2881 16.6777 34.4333 16.0324 34.4333 14.7417C34.4333 14.2221 34.5506 13.7276 34.7853 13.2583C35.0367 12.789 35.3971 12.3867 35.8664 12.0514C36.3525 11.6994 36.9559 11.4229 37.6767 11.2217C38.3975 11.0206 39.2356 10.92 40.191 10.92C42.0516 10.92 43.4009 11.3055 44.239 12.0766C45.0771 12.8476 45.4961 13.9371 45.4961 15.3451C45.4961 15.5295 45.471 15.8648 45.4207 16.3509C45.3872 16.8202 45.3369 17.323 45.2698 17.8594C45.2196 18.379 45.1693 18.8735 45.119 19.3429C45.0855 19.8122 45.0687 20.139 45.0687 20.3234C45.0687 20.7425 45.1441 21.0442 45.295 21.2286C45.4458 21.3962 45.6135 21.5135 45.7978 21.5806C45.999 21.6476 46.175 21.6979 46.3258 21.7314C46.4767 21.765 46.5521 21.8488 46.5521 21.9829C46.5521 22.3516 46.5018 22.7288 46.4013 23.1143C46.3007 23.4998 46.1331 23.8518 45.8984 24.1703C45.6805 24.4888 45.3704 24.7486 44.9681 24.9497C44.5826 25.1509 44.1049 25.2514 43.535 25.2514C42.7304 25.2514 42.127 25.0587 41.7247 24.6731C41.3224 24.2876 41.0542 23.7512 40.9201 23.064C40.5178 23.6507 39.9898 24.1619 39.3361 24.5977C38.6992 25.0335 37.8611 25.2514 36.8218 25.2514C36.319 25.2514 35.8413 25.1928 35.3887 25.0754C34.9529 24.9581 34.5674 24.7653 34.2321 24.4971C33.9136 24.229 33.6538 23.8853 33.4527 23.4663C33.2683 23.0305 33.1761 22.5109 33.1761 21.9074ZM40.9956 19.0411C40.5597 19.0411 40.1323 19.0747 39.7133 19.1417C39.2942 19.2088 38.9171 19.3177 38.5818 19.4686C38.2634 19.6027 38.0036 19.787 37.8024 20.0217C37.6013 20.2564 37.5007 20.5413 37.5007 20.8766C37.5007 21.2621 37.618 21.5303 37.8527 21.6811C38.1041 21.832 38.3723 21.9074 38.6573 21.9074C38.9255 21.9074 39.1936 21.8488 39.4618 21.7314C39.73 21.6141 39.9647 21.4381 40.1658 21.2034C40.3837 20.952 40.5681 20.6503 40.719 20.2983C40.8698 19.9463 40.962 19.5272 40.9956 19.0411ZM53.9561 10.92C55.3809 10.92 56.4285 11.205 57.099 11.7749C57.7694 12.328 58.1047 13.0404 58.1047 13.912C58.1047 14.6495 57.87 15.211 57.4007 15.5966C56.9481 15.9821 56.286 16.1749 55.4144 16.1749C55.1797 16.1749 55.0205 16.1497 54.9367 16.0994C54.8529 16.0491 54.811 15.957 54.811 15.8229C54.811 15.672 54.7942 15.5044 54.7607 15.32C54.7439 15.1189 54.6852 14.9345 54.5847 14.7669C54.5009 14.5825 54.3584 14.4316 54.1572 14.3143C53.9729 14.197 53.7047 14.1383 53.3527 14.1383C52.8833 14.1383 52.5062 14.2556 52.2212 14.4903C51.9363 14.7082 51.7938 14.9848 51.7938 15.32C51.7938 15.672 51.9363 15.957 52.2212 16.1749C52.523 16.376 52.8917 16.5688 53.3275 16.7531C53.7801 16.9375 54.2662 17.1303 54.7858 17.3314C55.3054 17.5158 55.7832 17.7672 56.219 18.0857C56.6715 18.4042 57.0403 18.8065 57.3252 19.2926C57.627 19.7619 57.7778 20.3737 57.7778 21.128C57.7778 22.3349 57.3504 23.3238 56.4955 24.0949C55.6407 24.8659 54.3584 25.2514 52.6487 25.2514C52.1793 25.2514 51.6346 25.2095 51.0144 25.1257C50.411 25.0587 49.8327 24.9497 49.2795 24.7989C48.7264 24.6312 48.2571 24.4133 47.8715 24.1451C47.5028 23.877 47.3184 23.5417 47.3184 23.1394C47.3184 22.9886 47.3435 22.8042 47.3938 22.5863C47.4609 22.3684 47.5531 22.1589 47.6704 21.9577C47.8045 21.7566 47.9553 21.589 48.123 21.4549C48.3073 21.304 48.5252 21.2286 48.7767 21.2286C48.9778 21.2286 49.1622 21.2789 49.3298 21.3794C49.4974 21.48 49.6902 21.589 49.9081 21.7063C50.1428 21.8069 50.4277 21.9074 50.763 22.008C51.0982 22.1086 51.5424 22.1589 52.0955 22.1589C52.5146 22.1589 52.8833 22.1086 53.2018 22.008C53.5371 21.9074 53.7047 21.6811 53.7047 21.3291C53.7047 21.0107 53.5706 20.7592 53.3024 20.5749C53.0342 20.3737 52.6906 20.1893 52.2715 20.0217C51.8692 19.8541 51.4251 19.6781 50.939 19.4937C50.4696 19.2926 50.0254 19.0328 49.6064 18.7143C49.2041 18.3958 48.8689 17.9935 48.6007 17.5074C48.3325 17.0046 48.1984 16.3592 48.1984 15.5714C48.1984 14.7166 48.366 13.9958 48.7012 13.4091C49.0532 12.8057 49.4974 12.3196 50.0338 11.9509C50.587 11.5821 51.2072 11.3223 51.8944 11.1714C52.5816 11.0038 53.2689 10.92 53.9561 10.92ZM68.2555 21.8823C68.3058 21.3291 68.3561 20.7509 68.4064 20.1474C68.4734 19.544 68.5237 18.9657 68.5572 18.4126C68.6075 17.8594 68.6494 17.365 68.6829 16.9291C68.7165 16.4933 68.7332 16.1749 68.7332 15.9737C68.7332 15.5379 68.6243 15.1524 68.4064 14.8171C68.2052 14.4651 67.8029 14.2891 67.1995 14.2891C66.3949 14.2891 65.7412 14.6663 65.2384 15.4206C64.7523 16.1749 64.4673 17.1806 64.3835 18.4377C64.35 18.7897 64.3081 19.2842 64.2578 19.9211C64.2075 20.5413 64.1572 21.1783 64.1069 21.832C64.0567 22.469 64.0064 23.0472 63.9561 23.5669C63.9226 24.0697 63.9058 24.3798 63.9058 24.4971C63.9058 24.6983 63.8639 24.8324 63.7801 24.8994C63.713 24.9665 63.5706 25 63.3527 25H62.4475C61.9279 25 61.5005 24.9497 61.1652 24.8491C60.8468 24.7318 60.5869 24.5726 60.3858 24.3714C60.2014 24.1703 60.0673 23.9272 59.9835 23.6423C59.9165 23.3406 59.8829 22.997 59.8829 22.6114C59.8829 22.2427 59.9081 21.7314 59.9584 21.0777C60.0254 20.4072 60.1092 19.4937 60.2098 18.3371C60.3104 17.1638 60.4277 15.672 60.5618 13.8617C60.6959 12.0514 60.8384 9.80533 60.9892 7.12343C61.006 6.75467 61.0479 6.53676 61.1149 6.46971C61.1652 6.41943 61.2993 6.39429 61.5172 6.39429H62.4978C63.0007 6.39429 63.4197 6.45295 63.7549 6.57029C64.0902 6.68762 64.3584 6.84686 64.5595 7.048C64.7607 7.24914 64.9031 7.48381 64.9869 7.752C65.0708 8.00343 65.1127 8.27162 65.1127 8.55657C65.1127 8.85829 65.0791 9.41981 65.0121 10.2411C64.9618 11.0625 64.8948 12.0263 64.8109 13.1326C65.3138 12.2945 65.8669 11.7162 66.4704 11.3977C67.0906 11.0792 67.87 10.92 68.8087 10.92C69.5127 10.92 70.1245 10.9954 70.6441 11.1463C71.1637 11.2971 71.5911 11.557 71.9264 11.9257C72.2784 12.2777 72.5382 12.747 72.7058 13.3337C72.8734 13.9036 72.9572 14.616 72.9572 15.4709C72.9572 15.739 72.9321 16.2 72.8818 16.8537C72.8315 17.5074 72.7645 18.2533 72.6807 19.0914C72.6136 19.9295 72.5382 20.8095 72.4544 21.7314C72.3873 22.6366 72.3287 23.4663 72.2784 24.2206C72.2616 24.405 72.2449 24.5474 72.2281 24.648C72.2113 24.7486 72.1778 24.824 72.1275 24.8743C72.094 24.9246 72.0353 24.9581 71.9515 24.9749C71.8677 24.9916 71.7504 25 71.5995 25H70.7949C70.2586 25 69.8228 24.9497 69.4875 24.8491C69.1523 24.7486 68.8925 24.6061 68.7081 24.4217C68.5237 24.2373 68.3896 24.011 68.3058 23.7429C68.2388 23.4579 68.2052 23.1394 68.2052 22.7874C68.2052 22.6198 68.2052 22.4606 68.2052 22.3097C68.222 22.1589 68.2388 22.0164 68.2555 21.8823ZM88.5833 22.3097C88.8012 21.0861 88.9856 20.0217 89.1365 19.1166C89.3041 18.1947 89.4382 17.3985 89.5387 16.728C89.6561 16.0575 89.7483 15.4792 89.8153 14.9931C89.8991 14.507 89.9662 14.0796 90.0165 13.7109C90.0835 13.3253 90.1338 12.9901 90.1673 12.7051C90.2176 12.4034 90.2679 12.0933 90.3182 11.7749C90.3517 11.5905 90.4355 11.448 90.5696 11.3474C90.7205 11.2469 90.997 11.1966 91.3993 11.1966C91.6172 11.1966 91.9189 11.2133 92.3045 11.2469C92.7067 11.2636 93.1007 11.3223 93.4862 11.4229C93.8717 11.5234 94.1986 11.6827 94.4667 11.9006C94.7517 12.1017 94.8942 12.3867 94.8942 12.7554C94.8942 13.0236 94.8187 13.4259 94.6679 13.9623C94.517 14.4819 94.3243 15.0853 94.0896 15.7726C93.8549 16.4598 93.5867 17.1973 93.285 17.9851C92.9833 18.7562 92.6732 19.5272 92.3547 20.2983C92.053 21.0526 91.7597 21.7733 91.4747 22.4606C91.1898 23.1478 90.9467 23.7429 90.7456 24.2457C90.6115 24.5474 90.4774 24.7486 90.3433 24.8491C90.226 24.9497 90.0081 25 89.6896 25H88.2062C87.7368 25 87.3513 24.9413 87.0496 24.824C86.7479 24.7067 86.5048 24.5474 86.3205 24.3463C86.1361 24.1451 85.9936 23.9189 85.893 23.6674C85.7925 23.3992 85.717 23.1143 85.6667 22.8126C85.4991 21.9577 85.3231 20.8095 85.1387 19.368C84.9544 17.9265 84.7867 16.2251 84.6359 14.264C84.5521 14.6328 84.4515 15.1272 84.3342 15.7474C84.2336 16.3676 84.1163 17.0381 83.9822 17.7589C83.8648 18.4796 83.7391 19.2171 83.605 19.9714C83.4709 20.7257 83.3452 21.4297 83.2279 22.0834C83.1106 22.7204 83.0016 23.2735 82.901 23.7429C82.8005 24.1954 82.7167 24.4888 82.6496 24.6229C82.5658 24.7905 82.4568 24.8994 82.3227 24.9497C82.2054 24.9832 82.0294 25 81.7947 25H80.0347C79.5989 25 79.2218 24.9413 78.9033 24.824C78.6016 24.6899 78.3334 24.5223 78.0987 24.3211C77.8808 24.12 77.6965 23.8937 77.5456 23.6423C77.4115 23.3741 77.3109 23.0975 77.2439 22.8126C76.322 19.2255 75.6264 16.5185 75.157 14.6914C74.7045 12.8644 74.4782 11.8838 74.4782 11.7497C74.4782 11.5989 74.5536 11.4648 74.7045 11.3474C74.8553 11.2301 75.0481 11.1714 75.2827 11.1714C76.0035 11.1714 76.6237 11.205 77.1433 11.272C77.6629 11.3223 78.0904 11.4229 78.4256 11.5737C78.7776 11.7246 79.0458 11.9341 79.2302 12.2023C79.4146 12.4705 79.5319 12.8225 79.5822 13.2583C79.5989 13.493 79.6325 13.9707 79.6827 14.6914C79.733 15.4122 79.7833 16.2335 79.8336 17.1554C79.9007 18.0606 79.9593 18.9825 80.0096 19.9211C80.0767 20.8598 80.1353 21.656 80.1856 22.3097C80.3867 21.2705 80.546 20.4408 80.6633 19.8206C80.7974 19.2004 80.9064 18.6808 80.9902 18.2617C81.074 17.8427 81.141 17.4739 81.1913 17.1554C81.2584 16.837 81.3338 16.4598 81.4176 16.024C81.5014 15.5882 81.5936 15.0434 81.6942 14.3897C81.8115 13.736 81.9707 12.8644 82.1719 11.7749C82.2389 11.3726 82.6831 11.1714 83.5045 11.1714C84.0241 11.1714 84.5102 11.1882 84.9627 11.2217C85.4153 11.2552 85.8176 11.339 86.1696 11.4731C86.5216 11.5905 86.8233 11.7749 87.0747 12.0263C87.3262 12.261 87.5022 12.5878 87.6027 13.0069C87.6363 13.1242 87.6614 13.2415 87.6782 13.3589C87.7117 13.4762 87.7452 13.6438 87.7787 13.8617C87.8123 14.0796 87.8458 14.3813 87.8793 14.7669C87.9296 15.1524 87.9799 15.672 88.0302 16.3257C88.0972 16.9794 88.1727 17.7924 88.2565 18.7646C88.3403 19.7368 88.4492 20.9185 88.5833 22.3097ZM95.2967 21.9074C95.2967 20.3989 95.9755 19.2171 97.3332 18.3623C98.6909 17.5074 100.694 17.0465 103.342 16.9794C103.359 16.795 103.368 16.6442 103.368 16.5269C103.384 16.3928 103.393 16.2335 103.393 16.0491C103.393 15.5128 103.292 15.0853 103.091 14.7669C102.89 14.4484 102.471 14.2891 101.834 14.2891C101.482 14.2891 101.197 14.3394 100.979 14.44C100.761 14.5406 100.585 14.683 100.451 14.8674C100.317 15.035 100.208 15.2446 100.124 15.496C100.04 15.7474 99.9649 16.024 99.8978 16.3257C99.8643 16.4766 99.7889 16.5771 99.6715 16.6274C99.5542 16.661 99.3698 16.6777 99.1184 16.6777C97.4087 16.6777 96.5538 16.0324 96.5538 14.7417C96.5538 14.2221 96.6711 13.7276 96.9058 13.2583C97.1572 12.789 97.5176 12.3867 97.9869 12.0514C98.473 11.6994 99.0765 11.4229 99.7972 11.2217C100.518 11.0206 101.356 10.92 102.312 10.92C104.172 10.92 105.521 11.3055 106.36 12.0766C107.198 12.8476 107.617 13.9371 107.617 15.3451C107.617 15.5295 107.592 15.8648 107.541 16.3509C107.508 16.8202 107.457 17.323 107.39 17.8594C107.34 18.379 107.29 18.8735 107.24 19.3429C107.206 19.8122 107.189 20.139 107.189 20.3234C107.189 20.7425 107.265 21.0442 107.416 21.2286C107.566 21.3962 107.734 21.5135 107.918 21.5806C108.12 21.6476 108.296 21.6979 108.446 21.7314C108.597 21.765 108.673 21.8488 108.673 21.9829C108.673 22.3516 108.622 22.7288 108.522 23.1143C108.421 23.4998 108.254 23.8518 108.019 24.1703C107.801 24.4888 107.491 24.7486 107.089 24.9497C106.703 25.1509 106.225 25.2514 105.656 25.2514C104.851 25.2514 104.248 25.0587 103.845 24.6731C103.443 24.2876 103.175 23.7512 103.041 23.064C102.638 23.6507 102.11 24.1619 101.457 24.5977C100.82 25.0335 99.9816 25.2514 98.9424 25.2514C98.4395 25.2514 97.9618 25.1928 97.5092 25.0754C97.0734 24.9581 96.6879 24.7653 96.3527 24.4971C96.0342 24.229 95.7744 23.8853 95.5732 23.4663C95.3889 23.0305 95.2967 22.5109 95.2967 21.9074ZM103.116 19.0411C102.68 19.0411 102.253 19.0747 101.834 19.1417C101.415 19.2088 101.038 19.3177 100.702 19.4686C100.384 19.6027 100.124 19.787 99.9229 20.0217C99.7218 20.2564 99.6212 20.5413 99.6212 20.8766C99.6212 21.2621 99.7386 21.5303 99.9732 21.6811C100.225 21.832 100.493 21.9074 100.778 21.9074C101.046 21.9074 101.314 21.8488 101.582 21.7314C101.851 21.6141 102.085 21.4381 102.286 21.2034C102.504 20.952 102.689 20.6503 102.84 20.2983C102.99 19.9463 103.083 19.5272 103.116 19.0411ZM115.624 14.5657C115.574 15.2027 115.515 15.8312 115.448 16.4514C115.398 17.0716 115.348 17.6583 115.297 18.2114C115.247 18.7646 115.205 19.259 115.172 19.6949C115.155 20.1307 115.146 20.4659 115.146 20.7006C115.146 21.1364 115.197 21.4297 115.297 21.5806C115.398 21.7147 115.565 21.7817 115.8 21.7817C115.984 21.7817 116.144 21.7482 116.278 21.6811C116.412 21.6141 116.538 21.5387 116.655 21.4549C116.772 21.371 116.873 21.2956 116.957 21.2286C117.057 21.1615 117.166 21.128 117.284 21.128C117.401 21.128 117.51 21.195 117.61 21.3291C117.711 21.4632 117.761 21.7733 117.761 22.2594C117.761 23.1813 117.51 23.9105 117.007 24.4469C116.504 24.9832 115.641 25.2514 114.417 25.2514C113.21 25.2514 112.314 24.9749 111.727 24.4217C111.157 23.8518 110.872 22.9886 110.872 21.832C110.872 21.5806 110.88 21.2872 110.897 20.952C110.931 20.6 110.973 20.1474 111.023 19.5943C111.073 19.0411 111.132 18.3623 111.199 17.5577C111.283 16.7531 111.367 15.7558 111.45 14.5657H110.118C109.984 14.5657 109.9 14.5406 109.866 14.4903C109.85 14.4232 109.841 14.331 109.841 14.2137L109.917 12.9314C109.933 12.7135 109.959 12.504 109.992 12.3029C110.042 12.085 110.126 11.8922 110.244 11.7246C110.378 11.557 110.562 11.4229 110.797 11.3223C111.031 11.2217 111.341 11.1714 111.727 11.1714C111.844 10.8697 111.978 10.5093 112.129 10.0903C112.28 9.67124 112.431 9.26895 112.582 8.88343C112.733 8.48114 112.875 8.1459 113.009 7.87771C113.16 7.60952 113.294 7.47543 113.412 7.47543H114.141C114.845 7.47543 115.331 7.69333 115.599 8.12914C115.867 8.56495 116.001 9.08457 116.001 9.688C116.001 10.0232 115.976 10.5177 115.926 11.1714H118.566C118.834 11.1714 118.968 11.2888 118.968 11.5234L118.868 12.8811C118.834 13.384 118.692 13.7947 118.44 14.1131C118.205 14.4149 117.711 14.5657 116.957 14.5657H115.624Z" fill="black"/>
</svg>
